<?xml version="1.0" encoding="utf-8"?>
<!-- Generator: Adobe Illustrator 25.2.1, SVG Export Plug-In . SVG Version: 6.00 Build 0)  -->
<svg version="1.1" id="Layer_1" xmlns="http://www.w3.org/2000/svg" xmlns:xlink="http://www.w3.org/1999/xlink" x="0px" y="0px"
	 viewBox="0 0 512 512" style="enable-background:new 0 0 512 512;" xml:space="preserve">
<style type="text/css">
	.st0{fill:#D2D2D2;}
</style>
<g transform="translate(0.000000,512.000000) scale(0.100000,-0.100000)">
	<path class="st0" d="M92,3823c-94-46-121-165-55-244c54-63-134-59,2523-59c2684,0,2472-6,2526,66c24,31,29,47,29,94s-5,63-29,94
		c-54,72,159,66-2528,66C339,3840,122,3838,92,3823z"/>
	<path class="st0" d="M95,2706c-94-41-124-168-58-247c54-63-134-59,2523-59c2684,0,2472-6,2526,66c24,31,29,47,29,94s-5,63-29,94
		c-54,72,159,66-2528,66C558,2719,120,2717,95,2706z"/>
	<path class="st0" d="M1695,1586c-94-41-124-168-58-247c53-63-59-59,1724-59c1816,0,1671-6,1727,68c22,29,27,46,27,93
		c0,62-17,94-69,133c-27,21-28,21-1674,23C2018,1599,1720,1597,1695,1586z"/>
</g>
</svg>
